<?xml version="1.0" encoding="utf-8"?>
<!-- Generator: Adobe Illustrator 16.0.0, SVG Export Plug-In . SVG Version: 6.00 Build 0)  -->
<!DOCTYPE svg PUBLIC "-//W3C//DTD SVG 1.1//EN" "http://www.w3.org/Graphics/SVG/1.1/DTD/svg11.dtd">
<svg version="1.1" xmlns="http://www.w3.org/2000/svg" xmlns:xlink="http://www.w3.org/1999/xlink" x="0px" y="0px" width="152px"
	 height="152px" viewBox="0 0 152 152" enable-background="new 0 0 152 152" xml:space="preserve">
<g id="Layer_2">
</g>
<g id="Layer_1">
	<g>
		<path fill="#FDC616" d="M76,7.69c-38.629,0-70.057,31.428-70.057,70.056c0,28.915,17.49,54.461,43.997,65.041l1.089-3.175
			C25.881,129.5,9.299,105.221,9.299,77.746c0-36.778,29.922-66.701,66.701-66.701c2.818,0,5.633,0.197,8.421,0.549l1.996-3.128
			C82.98,7.954,79.49,7.69,76,7.69z"/>
		<path fill="#FDC616" d="M96.163,10.638l-0.483,1.608l-0.48,1.605c27.85,8.36,47.502,34.343,47.502,63.895
			c0,36.779-29.922,66.702-66.701,66.702c-5.106,0-10.154-0.581-15.074-1.717l-1.914,2.985c5.531,1.378,11.225,2.086,16.988,2.086
			c38.629,0,70.057-31.428,70.057-70.057C146.057,46.71,125.415,19.422,96.163,10.638z"/>
		<path fill="#FFFFFF" d="M79.004,104.158h-6.996V59.061l-9.6,2.01v-5.582l16.596-3.646V104.158z"/>
		<g>
			<polygon fill="#FDC616" points="84,63 84,99.577 107.869,63 			"/>
			<path fill="#FDC616" d="M72.302,109c-2.701,0-4.887-2.066-4.982-4.744L51.32,150.881L78.153,109H72.302z"/>
			<path fill="#FDC616" d="M78.225,46.958c0.356-0.078,0.715-0.116,1.073-0.116c0.576,0,1.145,0.102,1.684,0.295L94.93,1
				L65.315,49.795L78.225,46.958z"/>
			<path fill="#FDC616" d="M67,65.216l-3.424,0.748c-0.34,0.071-0.608,0.106-0.949,0.106c-1.138,0-2.216-0.389-3.115-1.119
				c-0.886-0.72-1.47-1.668-1.711-2.762L44.611,84H67V65.216z"/>
		</g>
	</g>
</g>
</svg>
