<?xml version="1.0" encoding="utf-8"?>
<!-- Generator: Adobe Illustrator 16.0.0, SVG Export Plug-In . SVG Version: 6.00 Build 0)  -->
<!DOCTYPE svg PUBLIC "-//W3C//DTD SVG 1.1//EN" "http://www.w3.org/Graphics/SVG/1.1/DTD/svg11.dtd">
<svg version="1.1" xmlns="http://www.w3.org/2000/svg" xmlns:xlink="http://www.w3.org/1999/xlink" x="0px" y="0px" width="152px"
	 height="152px" viewBox="0 0 152 152" enable-background="new 0 0 152 152" xml:space="preserve">
<g id="Layer_2">
</g>
<g id="Layer_1">
	<path fill="#FDC616" d="M76,7.344c-38.629,0-70.057,31.428-70.057,70.056c0,28.915,17.49,54.461,43.997,65.041l1.089-3.175
		c-25.148-10.112-41.73-34.392-41.73-61.866c0-36.778,29.922-66.701,66.701-66.701c2.818,0,5.633,0.197,8.421,0.549l1.996-3.128
		C82.98,7.607,79.49,7.344,76,7.344z"/>
	<path fill="#FDC616" d="M96.163,10.291l-0.483,1.608l-0.48,1.605c27.85,8.36,47.502,34.343,47.502,63.895
		c0,36.779-29.922,66.702-66.701,66.702c-5.106,0-10.154-0.581-15.074-1.717l-1.914,2.985c5.531,1.378,11.225,2.086,16.988,2.086
		c38.629,0,70.057-31.428,70.057-70.057C146.057,46.363,125.415,19.075,96.163,10.291z"/>
	<path fill="#FFFFFF" d="M91.851,60.991v4.986c0,6.102-1.712,8.334-4.391,9.674c-2.977,1.488-6.772,2.828-9.303,3.87
		c-3.423,1.414-7.59,3.125-9.822,4.837c-1.117,0.893-1.861,2.158-1.861,4.837v7.219h26.047v5.581H59.479v-12.8
		c0-4.391,1.414-6.995,3.498-8.632c3.572-2.754,7.888-4.242,12.204-6.028c2.308-0.968,5.135-2.009,7.591-3.274
		c1.712-0.893,2.084-2.456,2.084-5.209v-4.763c0-4.316-4.242-6.4-9.525-6.4c-3.2,0-8.409,0.67-13.991,2.084v-5.581
		c4.838-1.34,9.823-2.084,13.991-2.084C85.152,49.308,91.851,53.104,91.851,60.991z"/>
	<g>
		<path fill="#FDC616" d="M75.33,44.656c2.252,0,4.292,0.179,6.146,0.5L94.93,0.653L67.863,45.25
			C70.479,44.861,73.01,44.656,75.33,44.656z"/>
		<polygon fill="#FDC616" points="66.169,107 51.32,150.31 79.095,107 		"/>
		<path fill="#FDC616" d="M59.924,77.172c3.547-2.734,7.501-4.438,11.323-5.977c0.672-0.271,1.347-0.598,2-0.868
			c0.636-0.267,1.311-0.566,2.006-0.847c1.55-0.625,3.217-1.283,4.641-1.972C79.912,67.262,80,66.896,80,66.4V62h-3.76l0.647-1.903
			c-0.48-0.058-0.996,0.022-1.558,0.022c-2.372,0-7.138,0.564-12.764,1.989c-0.405,0.103-0.817,0.184-1.228,0.184
			c-1.101,0-2.184-0.35-3.071-1.039c-0.029-0.022-0.054,0.178-0.082,0.154L44.611,84h10.753C56.236,81,57.748,78.881,59.924,77.172z
			"/>
		<path fill="#FDC616" d="M97,62v4.326c0,7.309-2.281,11.671-7.229,14.146c-2.309,1.154-4.954,2.17-7.256,3.065
			c-0.877,0.341-1.719,0.661-2.431,0.954l-0.143,0.056c-2.227,0.919-5.074,2.217-7.043,3.299L71.511,92h17.576l18.782-30H97z"/>
	</g>
</g>
</svg>
