<?xml version="1.0" encoding="utf-8"?>
<!-- Generator: Adobe Illustrator 16.0.0, SVG Export Plug-In . SVG Version: 6.00 Build 0)  -->
<!DOCTYPE svg PUBLIC "-//W3C//DTD SVG 1.1//EN" "http://www.w3.org/Graphics/SVG/1.1/DTD/svg11.dtd">
<svg version="1.1" xmlns="http://www.w3.org/2000/svg" xmlns:xlink="http://www.w3.org/1999/xlink" x="0px" y="0px" width="152px"
	 height="152px" viewBox="0 0 152 152" enable-background="new 0 0 152 152" xml:space="preserve">
<g id="Layer_2">
</g>
<g id="Layer_1">
	<path fill="#FDC616" d="M76,7.344c-38.629,0-70.057,31.428-70.057,70.056c0,28.915,17.49,54.461,43.997,65.041l1.089-3.175
		c-25.148-10.112-41.73-34.392-41.73-61.866c0-36.778,29.922-66.701,66.701-66.701c2.818,0,5.633,0.197,8.421,0.549l1.996-3.128
		C82.98,7.607,79.49,7.344,76,7.344z"/>
	<path fill="#FDC616" d="M96.163,10.291l-0.483,1.608l-0.48,1.605c27.85,8.36,47.502,34.343,47.502,63.895
		c0,36.779-29.922,66.702-66.701,66.702c-5.106,0-10.154-0.581-15.074-1.717l-1.914,2.985c5.531,1.378,11.225,2.086,16.988,2.086
		c38.629,0,70.057-31.428,70.057-70.057C146.057,46.363,125.415,19.075,96.163,10.291z"/>
	<path fill="#FFFFFF" d="M92.446,88.525c0,9.079-6.773,13.47-17.414,13.47c-4.094,0-10.717-0.67-15.479-1.786v-5.581
		c5.805,1.19,11.98,1.786,15.479,1.786c5.654,0,10.418-2.308,10.418-8.037v-5.135c0-3.646-2.232-6.028-6.475-6.028H64.093v-5.507
		h14.734c4.018,0,5.805-3.125,5.805-6.177v-4.985c0-4.838-4.391-6.326-10.121-6.326c-2.605,0-6.994,0-13.842,1.712V50.35
		c5.953-1.34,10.047-1.712,13.842-1.712c9.748,0,17.115,3.2,17.115,11.609v4.837c0,4.391-1.414,7.367-4.314,9.153
		c2.826,1.414,5.135,4.391,5.135,8.93V88.525z"/>
	<g>
		<path fill="#FDC616" d="M97,62v3.768c0,3.467-1.122,6.411-2.536,8.811c1.164,1.559,1.852,3.133,2.211,5.114L107.869,62H97z"/>
		<path fill="#FDC616" d="M74.697,44.321c2.464,0,4.748,0.205,6.854,0.587L94.93,0.653l-26.729,44.04
			C70.396,44.443,72.511,44.321,74.697,44.321z"/>
		<path fill="#FDC616" d="M74.921,107.679c-2.328,0-5.437-0.204-8.661-0.601L51.32,150.653l27.709-43.208
			C77.719,107.588,76.359,107.679,74.921,107.679z"/>
		<path fill="#FDC616" d="M71.446,92.172c1.311,0.097,2.458,0.035,3.36,0.035c5.418,0,5.193-2.396,5.193-3.146v-5.135
			c0-0.497,0.129-0.695,0.107-0.732C80.033,83.129,79.849,83,78.976,83H64.093C61.331,83,59,80.659,59,77.897v-5.507
			C59,69.629,61.331,67,64.093,67h14.734C79.223,67,80,67.391,80,66.214V62h-3.76l0.738-2.206c-0.665-0.077-1.469-0.011-2.447-0.011
			c-2.54,0-6.358,0.06-12.608,1.622c-0.401,0.101-0.766,0.18-1.171,0.18c-0.87,0-1.676-0.001-2.413-0.437L44.611,84h29.712
			L71.446,92.172z"/>
	</g>
</g>
</svg>
