<?xml version="1.0" encoding="utf-8"?>
<!-- Generator: Adobe Illustrator 16.0.0, SVG Export Plug-In . SVG Version: 6.00 Build 0)  -->
<!DOCTYPE svg PUBLIC "-//W3C//DTD SVG 1.1//EN" "http://www.w3.org/Graphics/SVG/1.1/DTD/svg11.dtd">
<svg version="1.1" xmlns="http://www.w3.org/2000/svg" xmlns:xlink="http://www.w3.org/1999/xlink" x="0px" y="0px" width="152px"
	 height="152px" viewBox="0 0 152 152" enable-background="new 0 0 152 152" xml:space="preserve">
<g id="Layer_2">
</g>
<g id="Layer_1">
	<path fill="#FDC616" d="M76,7.344c-38.629,0-70.057,31.428-70.057,70.056c0,28.915,17.49,54.461,43.997,65.041l1.089-3.175
		c-25.148-10.112-41.73-34.392-41.73-61.866c0-36.778,29.922-66.701,66.701-66.701c2.818,0,5.633,0.197,8.421,0.549l1.996-3.128
		C82.98,7.607,79.49,7.344,76,7.344z"/>
	<path fill="#FDC616" d="M96.163,10.291l-0.483,1.608l-0.48,1.605c27.85,8.36,47.502,34.343,47.502,63.895
		c0,36.779-29.922,66.702-66.701,66.702c-5.106,0-10.154-0.581-15.074-1.717l-1.914,2.985c5.531,1.378,11.225,2.086,16.988,2.086
		c38.629,0,70.057-31.428,70.057-70.057C146.057,46.363,125.415,19.075,96.163,10.291z"/>
	<path fill="#FFFFFF" d="M80.874,90.907H58.103v-4.316l15.182-36.912h7.367l-14.66,35.646h14.883V67.093h6.996v18.232h6.027v5.582
		H87.87v11.088h-6.996V90.907z"/>
	<g>
		<path fill="#FDC616" d="M68.66,48.238C69.431,46.364,71.258,45,73.284,45h7.367h0.005c0.289,0,0.567,0.035,0.843,0.08L94.93,0.873
			L44.611,84h9.366L68.66,48.238z"/>
		<path fill="#FDC616" d="M89.918,62C91.706,63,93,65.216,93,67.256V80h0.897c0.824,0,1.61,0.01,2.309,0.425L107.869,62H89.918z"/>
		<polygon fill="#FDC616" points="76,74.604 73.454,80 76,80 		"/>
		<path fill="#FDC616" d="M76,102.158V96h-5.941L51.32,150.653l28.135-43.871C77.426,106.202,76,104.419,76,102.158z"/>
	</g>
</g>
</svg>
